<svg width="718" height="100" viewBox="0 0 718 100" fill="none" xmlns="http://www.w3.org/2000/svg">
<path d="M103.368 0H65.2269L0 99.0305H65.8106L103.368 0Z" fill="#8E128B"/>
<path d="M89.4428 73.7971C89.4428 82.4475 90.3717 90.8856 92.1332 99.0304H137.81L96.7609 32.6562C92.0223 45.5166 89.4407 59.3657 89.4407 73.7971H89.4428Z" fill="#460067"/>
<path d="M202.073 89.583H179.5L211.375 9.70776H233.948L265.769 89.583H243.195L237.919 75.3652H207.35L202.073 89.583ZM214.203 56.9939H231.12L222.634 34.2028L214.203 56.9939Z" fill="#080008"/>
<path d="M353.495 89.583H329.671L314.114 63.1709H304.432V89.583H282.892V9.70776H315.746C322.817 9.70776 328.837 10.755 333.805 12.8495C338.773 14.944 342.562 17.997 345.173 22.0085C347.82 25.9846 349.144 30.7948 349.144 36.4393C349.144 41.7288 347.983 46.2906 345.663 50.1246C343.342 53.9586 339.988 56.9761 335.6 59.1771L353.495 89.583ZM304.432 46.9296H314.06C318.375 46.9296 321.62 46.1486 323.796 44.5866C326.008 42.9891 327.114 40.6283 327.114 37.5043C327.114 34.3803 326.008 32.0373 323.796 30.4753C321.62 28.8778 318.375 28.0791 314.06 28.0791H304.432V46.9296Z" fill="#080008"/>
<path d="M392.702 89.583H371.162V9.70776H392.702V43.0956C394.624 40.3266 396.456 37.7706 398.196 35.4276C399.937 33.0846 401.406 31.1853 402.602 29.7298L418.866 9.70776H444.214L414.134 46.7166L449.653 89.583H421.858L400.372 63.6502L392.702 73.1287V89.583Z" fill="#080008"/>
<path d="M483.965 89.583H461.391L493.266 9.70776H515.839L547.66 89.583H525.086L519.81 75.3652H489.241L483.965 89.583ZM496.094 56.9939H513.011L504.526 34.2028L496.094 56.9939Z" fill="#080008"/>
<path d="M641.043 89.583H615.696L586.323 42.1903V89.583H564.783V9.70776H590.131L619.503 57.2601V9.70776H641.043V89.583Z" fill="#080008"/>
<path d="M663.062 89.583V9.70776H717.456V28.0791H684.602V40.4331H715.28V58.8044H684.602V71.2117H718V89.583H663.062Z" fill="#080008"/>
</svg>
