<svg width="267" height="100" viewBox="0 0 267 100" fill="none" xmlns="http://www.w3.org/2000/svg">
<g clip-path="url(#clip0_141_541)">
<path d="M191.245 71.3104L216.6 100H245.255L205.559 55.1182L191.245 71.3104ZM216.6 0.631104L191.245 29.3008L205.572 45.4997L245.255 0.631104H216.6Z" fill="#333378"/>
<path d="M128.31 0.631104L172.263 50.3156L128.31 100H156.964L200.898 50.3023L156.964 0.631104H128.31Z" fill="url(#paint0_linear_141_541)"/>
<path d="M137.229 50.3156C137.229 22.9195 115.014 0.631104 87.7086 0.631104H44.1716V35.4766H64.707V21.3341H87.7086C103.642 21.3341 116.601 34.3356 116.601 50.3222C116.601 66.3088 103.642 79.3037 87.7086 79.3037H64.707V66.2889H44.1716V100H87.7086C115.014 100 137.229 77.7117 137.229 50.3156Z" fill="#5548D9"/>
<path d="M230.835 57.6123H222.055V55.881L227.417 50.6737C227.82 50.2624 228.17 49.8379 228.461 49.3868C228.752 48.9424 228.898 48.4383 228.898 47.881C228.898 47.5361 228.832 47.2177 228.706 46.9391C228.58 46.6605 228.409 46.4217 228.19 46.2227C227.972 46.0237 227.721 45.8711 227.43 45.765C227.139 45.6588 226.828 45.6058 226.498 45.6058C225.81 45.6058 225.248 45.818 224.805 46.2492C224.362 46.6804 224.085 47.2243 223.972 47.8943L222.167 47.5958C222.247 47.0983 222.405 46.6406 222.65 46.2094C222.894 45.7782 223.212 45.4068 223.589 45.095C223.972 44.7766 224.409 44.5312 224.911 44.3587C225.413 44.1862 225.949 44.1 226.518 44.1C227.086 44.1 227.609 44.1796 228.124 44.3388C228.64 44.498 229.089 44.7368 229.486 45.0486C229.876 45.3603 230.194 45.7517 230.425 46.2227C230.656 46.6937 230.775 47.231 230.775 47.8412C230.775 48.2658 230.716 48.6505 230.604 49.0154C230.491 49.3736 230.332 49.7185 230.134 50.0369C229.936 50.3619 229.704 50.6671 229.44 50.959C229.175 51.2508 228.898 51.5427 228.607 51.8279L224.237 55.9937H230.835V57.6123ZM256.051 55.9937H249.453L253.823 51.8279C254.114 51.5427 254.392 51.2575 254.656 50.959C254.921 50.6671 255.152 50.3619 255.35 50.0369C255.549 49.7119 255.701 49.3736 255.82 49.0154C255.932 48.6572 255.992 48.2658 255.992 47.8412C255.992 47.231 255.873 46.6937 255.641 46.2227C255.403 45.7517 255.093 45.3603 254.703 45.0486C254.312 44.7368 253.856 44.5046 253.341 44.3388C252.825 44.1796 252.289 44.1 251.734 44.1C251.179 44.1 250.63 44.1862 250.127 44.3587C249.625 44.5312 249.189 44.7766 248.805 45.095C248.422 45.4134 248.111 45.7849 247.866 46.2094C247.622 46.6406 247.456 47.0983 247.384 47.5958L249.189 47.8943C249.301 47.2243 249.579 46.6738 250.022 46.2492C250.465 45.8247 251.027 45.6058 251.714 45.6058C252.045 45.6058 252.355 45.6588 252.646 45.765C252.937 45.8711 253.189 46.0237 253.407 46.2227C253.625 46.4217 253.79 46.6605 253.922 46.9391C254.048 47.2177 254.114 47.5295 254.114 47.881C254.114 48.4383 253.969 48.9424 253.678 49.3868C253.387 49.8313 253.036 50.2624 252.633 50.6737L247.271 55.881V57.6123H256.051V55.9937ZM261.202 51.3172H261.77C262.16 51.3172 262.564 51.357 262.967 51.4366C263.37 51.5162 263.741 51.6488 264.058 51.8346C264.382 52.0203 264.646 52.2657 264.845 52.5709C265.05 52.876 265.149 53.2541 265.149 53.6986C265.149 54.1098 265.076 54.468 264.917 54.7732C264.759 55.0783 264.56 55.3304 264.309 55.536C264.058 55.7417 263.767 55.8942 263.443 56.0004C263.119 56.1065 262.788 56.1529 262.445 56.1529C261.737 56.1529 261.136 55.9805 260.646 55.6223C260.157 55.2707 259.813 54.813 259.608 54.2558L257.896 54.8064C258.266 55.7748 258.855 56.4979 259.661 56.9556C260.474 57.4199 261.407 57.6455 262.478 57.6455C263.046 57.6455 263.608 57.5592 264.15 57.3868C264.693 57.2143 265.175 56.9689 265.592 56.6372C266.008 56.3121 266.345 55.9009 266.597 55.41C266.848 54.9191 266.98 54.3486 266.98 53.7052C266.98 53.2939 266.907 52.9092 266.769 52.5576C266.63 52.206 266.438 51.8943 266.2 51.6157C265.962 51.3437 265.671 51.1115 265.334 50.9324C264.997 50.7533 264.633 50.6207 264.243 50.5477V50.5145C264.587 50.4283 264.904 50.2956 265.195 50.1099C265.486 49.9241 265.737 49.7119 265.949 49.4532C266.16 49.1945 266.326 48.9092 266.445 48.5974C266.564 48.279 266.623 47.9407 266.623 47.5759C266.623 47.0054 266.511 46.5013 266.293 46.0635C266.074 45.6257 265.77 45.2608 265.387 44.969C265.01 44.6771 264.567 44.4582 264.064 44.3056C263.562 44.153 263.033 44.0801 262.478 44.0801C261.526 44.0801 260.686 44.299 259.959 44.7434C259.231 45.1879 258.703 45.7981 258.372 46.5743L260.045 47.1381C260.25 46.6406 260.547 46.2492 260.95 45.9706C261.347 45.692 261.836 45.5527 262.405 45.5527C262.722 45.5527 263.02 45.6058 263.311 45.7053C263.595 45.8114 263.853 45.9507 264.071 46.1364C264.289 46.3222 264.468 46.5411 264.593 46.7998C264.719 47.0651 264.785 47.357 264.785 47.682C264.785 48.0933 264.699 48.4449 264.527 48.7235C264.355 49.0021 264.131 49.221 263.853 49.3868C263.575 49.5527 263.258 49.6654 262.894 49.7318C262.531 49.7981 262.16 49.8313 261.784 49.8313H261.195V51.2906L261.202 51.3172ZM243.985 50.886C243.985 48.153 241.777 45.9308 239.046 45.9308C236.316 45.9308 234.108 48.1464 234.108 50.886C234.108 53.6256 236.316 55.8412 239.046 55.8412C241.777 55.8412 243.985 53.6256 243.985 50.886ZM245.751 50.886C245.751 54.6007 242.749 57.6123 239.046 57.6123C235.344 57.6123 232.342 54.6007 232.342 50.886C232.342 47.1713 235.344 44.1663 239.046 44.1663C242.749 44.1663 245.751 47.1779 245.751 50.886Z" fill="#969696"/>
<path d="M99.1399 57.2674V54.614H93.1961V51.954H98.5118V49.4731H93.1961V47.0519H98.8159V44.4384H90.2275V57.2674H99.1399ZM83.0408 49.168C82.9019 49.3736 82.7168 49.5328 82.5052 49.6456C82.2738 49.7517 82.0226 49.8247 81.7714 49.8645C81.5135 49.9043 81.2557 49.9308 80.9978 49.9308H79.5367V46.9524H81.1962C81.4342 46.9524 81.6722 46.9723 81.9102 46.9989C82.1416 47.0387 82.3664 47.1116 82.578 47.2178C82.7697 47.3239 82.9416 47.4698 83.0738 47.6489C83.2061 47.8745 83.2722 48.1265 83.2656 48.3852C83.2656 48.6639 83.1928 48.9425 83.054 49.1879M86.9945 57.2873L83.6557 51.8015C84.4226 51.5892 85.1102 51.1448 85.6127 50.5279C86.0953 49.8977 86.3399 49.1216 86.3267 48.3255C86.3466 47.6887 86.2011 47.0586 85.9168 46.4881C85.6523 46.0038 85.2623 45.5926 84.7995 45.3007C84.3234 44.9889 83.7879 44.77 83.2259 44.6506C82.6375 44.5246 82.0424 44.4583 81.4408 44.4583H76.5747V57.2873H79.5896V52.1928H80.6408L83.4176 57.2873H86.9879H86.9945ZM69.5797 52.425C69.4078 52.8894 69.1566 53.3139 68.826 53.6787C68.502 54.0303 68.1053 54.3089 67.6624 54.5013C66.7169 54.9126 65.6392 54.9126 64.6938 54.5013C64.264 54.3089 63.874 54.0303 63.55 53.6787C63.226 53.3073 62.9682 52.8827 62.7963 52.425C62.4326 51.4101 62.4326 50.289 62.7963 49.2741C62.9483 48.8098 63.2062 48.3919 63.55 48.0403C64.231 47.3173 65.183 46.9126 66.1748 46.9193C66.6839 46.9126 67.1929 47.0121 67.6624 47.2244C68.0987 47.4168 68.4954 47.6954 68.826 48.0469C69.15 48.4118 69.4012 48.8297 69.5797 49.2808C69.7714 49.7783 69.864 50.3023 69.8574 50.833C69.8574 51.3769 69.7648 51.9209 69.5797 52.4316M72.6342 48.0469C72.3037 47.2443 71.8078 46.5213 71.1665 45.9309C70.5185 45.3471 69.7648 44.8894 68.9516 44.5909C67.1533 43.9607 65.1963 43.9607 63.3979 44.5909C62.5847 44.8894 61.8376 45.3405 61.2029 45.9309C60.5748 46.5279 60.0789 47.2509 59.7418 48.0469C59.3781 48.9292 59.1996 49.8778 59.2261 50.833C59.2261 51.7816 59.398 52.7169 59.7418 53.5991C60.0657 54.4217 60.5616 55.158 61.2029 55.755C61.831 56.3653 62.5781 56.8363 63.3979 57.1348C65.1897 57.7848 67.1533 57.7848 68.9516 57.1348C69.7714 56.8296 70.5252 56.3586 71.1665 55.755C71.7946 55.1447 72.2904 54.4084 72.6342 53.5991C72.9979 52.7169 73.1698 51.7683 73.1499 50.8131C73.1632 49.8645 72.9913 48.9292 72.6342 48.0469ZM57.3748 55.4963L55.2195 53.4665C54.9286 53.8645 54.5517 54.1829 54.122 54.415C53.6195 54.6671 53.0641 54.7932 52.5087 54.7799C52.0063 54.7799 51.5104 54.687 51.0476 54.5013C50.6178 54.3155 50.2278 54.0436 49.9104 53.7053C49.5864 53.3404 49.3286 52.9292 49.1567 52.4714C48.965 51.9607 48.8724 51.4167 48.879 50.8728C48.879 50.3421 48.965 49.8114 49.1567 49.3206C49.3286 48.8629 49.5864 48.4383 49.9104 48.0668C50.241 47.7219 50.6377 47.4433 51.074 47.2443C51.5435 47.0453 52.0525 46.9458 52.5616 46.9392C53.0575 46.9392 53.5468 47.0387 54.0029 47.2178C54.4591 47.4035 54.8558 47.7219 55.1401 48.1265L57.2294 46.0304C56.6476 45.3869 55.9137 44.9027 55.1005 44.6241C53.3616 44.0005 51.4575 44.0005 49.7187 44.6241C48.8922 44.9093 48.1385 45.367 47.5038 45.964C46.8691 46.5611 46.3666 47.2907 46.0427 48.1C45.6856 48.9823 45.5005 49.9308 45.5071 50.8861C45.4939 51.828 45.6658 52.7567 46.0228 53.6323C46.6906 55.2708 48.0063 56.5576 49.6592 57.1746C50.5319 57.4996 51.4575 57.6654 52.3897 57.6721C53.3749 57.692 54.3467 57.4996 55.2525 57.1082C56.0657 56.7169 56.7864 56.1663 57.3814 55.4897M42.6576 57.2807V54.6273H36.7138V51.9673H42.0096V49.4864H36.7138V47.0652H42.3336V44.4516H33.7452V57.2807H42.6576ZM30.3469 47.0851V44.4516H20.0329V47.0851H23.6494V57.2608H26.7304V47.0851H30.3469ZM16.6544 44.4516H13.5536V57.2807H16.6544V44.4516ZM9.78504 45.7053C9.20984 45.1813 8.53546 44.7833 7.8082 44.5379C7.10076 44.2792 6.34705 44.1465 5.59333 44.1465C4.99168 44.1465 4.39004 44.2128 3.80822 44.3654C3.23963 44.518 2.69748 44.7634 2.21484 45.1017C1.74542 45.4267 1.35534 45.8513 1.07105 46.3554C0.766918 46.9193 0.621464 47.5494 0.641299 48.1862C0.601629 49.1282 0.971875 50.0436 1.65286 50.6937C1.9636 50.9789 2.32063 51.2111 2.71071 51.3836C3.10079 51.5627 3.50409 51.7219 3.91401 51.8545C4.34375 51.9872 4.70739 52.1132 5.03135 52.226C5.32887 52.3189 5.60656 52.4515 5.87102 52.6108C6.06936 52.7302 6.24126 52.8827 6.38672 53.0618C6.51895 53.2343 6.57845 53.4532 6.55862 53.6655C6.55862 53.891 6.51234 54.1099 6.40655 54.3155C6.3206 54.488 6.18837 54.6406 6.01647 54.7467C5.84457 54.8595 5.65945 54.9391 5.45449 54.9855C5.23631 55.032 5.01152 55.0519 4.78673 55.0519C4.25119 55.0519 3.72888 54.9192 3.25946 54.6671C2.78343 54.4349 2.36691 54.1033 2.02972 53.692L0.0065918 55.7683C0.608241 56.3785 1.33551 56.8363 2.1355 57.1281C2.98178 57.4532 3.88095 57.6256 4.78673 57.6256C5.4016 57.6256 6.02308 57.5394 6.61812 57.3669C7.18671 57.2077 7.71563 56.9424 8.19166 56.5908C8.64125 56.226 9.01149 55.7683 9.26934 55.2509C9.55364 54.6605 9.69248 54.0104 9.67926 53.3537C9.7057 52.7965 9.57347 52.2393 9.28918 51.755C9.04455 51.3371 8.7272 50.9723 8.34373 50.6738C7.95365 50.3819 7.53051 50.1497 7.07432 49.9839C6.59829 49.8114 6.1487 49.639 5.71895 49.5129C5.41482 49.4267 5.13714 49.3206 4.89912 49.2343C4.68094 49.1547 4.46937 49.0552 4.27764 48.9358C3.94706 48.7501 3.74211 48.3919 3.76194 48.0071C3.75533 47.7882 3.81483 47.5693 3.93384 47.3836C4.04624 47.2244 4.19169 47.0851 4.36359 46.9922C4.53549 46.8927 4.72722 46.8131 4.92557 46.7733C5.13053 46.7402 5.3421 46.7203 5.54705 46.7269C6.41978 46.7601 7.2396 47.1581 7.8082 47.828L9.78504 45.712V45.7053ZM102.472 45.6589V45.2476H102.71C102.776 45.2476 102.842 45.2675 102.902 45.2874C102.968 45.3073 103.008 45.3737 102.988 45.44C102.988 45.513 102.948 45.5793 102.882 45.6125C102.809 45.639 102.743 45.6523 102.664 45.6589H102.472ZM102.214 46.4615H102.472V45.8579H102.644L102.968 46.4615H103.292L102.902 45.838C102.994 45.8181 103.074 45.7717 103.14 45.712C103.206 45.639 103.232 45.5461 103.226 45.4533C103.226 45.3206 103.16 45.2012 103.054 45.1282C103.008 45.0818 102.948 45.0619 102.882 45.0619C102.816 45.042 102.756 45.0354 102.69 45.042H102.214V46.4682V46.4615ZM101.718 45.3405C101.824 45.0884 102.022 44.8828 102.28 44.7767C102.551 44.6705 102.849 44.6705 103.12 44.7767C103.252 44.8297 103.371 44.9093 103.464 45.0155C103.656 45.2211 103.768 45.4864 103.768 45.7717C103.768 45.911 103.741 46.0569 103.682 46.1829C103.583 46.4483 103.378 46.6539 103.12 46.7667C102.849 46.8728 102.551 46.8728 102.28 46.7667C102.148 46.7136 102.029 46.634 101.937 46.5279C101.837 46.4284 101.758 46.309 101.699 46.1829C101.639 46.0569 101.613 45.9176 101.613 45.7717C101.619 45.6257 101.659 45.4732 101.718 45.3405ZM101.546 46.2493C101.745 46.7136 102.208 47.0121 102.71 47.0055C103.047 47.0055 103.371 46.8728 103.616 46.6407C103.728 46.5213 103.821 46.3952 103.894 46.2493C104.019 45.9309 104.019 45.5727 103.894 45.2543C103.834 45.1017 103.735 44.969 103.616 44.8629C103.503 44.7435 103.365 44.6573 103.206 44.6042C102.889 44.4583 102.532 44.4583 102.214 44.6042C102.069 44.6705 101.93 44.7568 101.804 44.8629C101.685 44.9823 101.593 45.1216 101.527 45.2742C101.394 45.5859 101.401 45.9375 101.546 46.2493Z" fill="#212621"/>
</g>
<defs>
<linearGradient id="paint0_linear_141_541" x1="164.607" y1="100" x2="164.607" y2="0.631104" gradientUnits="userSpaceOnUse">
<stop stop-color="#02999A"/>
<stop offset="1" stop-color="#5548D9"/>
</linearGradient>
<clipPath id="clip0_141_541">
<rect width="267" height="99.3689" fill="white" transform="translate(0 0.631104)"/>
</clipPath>
</defs>
</svg>
