<svg width="1024" height="1024" viewBox="0 0 1024 1024" fill="none" xmlns="http://www.w3.org/2000/svg">
<path d="M384 768C396.8 768 405.333 763.733 413.867 755.2C430.933 738.133 430.933 712.533 413.867 695.467L200.533 482.133C183.467 465.067 157.867 465.067 140.8 482.133C123.733 499.2 123.733 524.8 140.8 541.867L354.133 755.2C362.667 763.733 371.2 768 384 768Z" fill="black"/>
<path d="M170.667 554.667C183.467 554.667 192 550.4 200.533 541.867L413.867 328.533C430.933 311.467 430.933 285.867 413.867 268.8C396.8 251.733 371.2 251.733 354.133 268.8L140.8 482.133C123.733 499.2 123.733 524.8 140.8 541.867C149.333 550.4 157.867 554.667 170.667 554.667Z" fill="black"/>
<path d="M170.667 554.667H853.333C878.933 554.667 896 537.6 896 512C896 486.4 878.933 469.333 853.333 469.333H170.667C145.067 469.333 128 486.4 128 512C128 537.6 145.067 554.667 170.667 554.667Z" fill="black"/>
</svg>
