<svg width="1024" height="1024" viewBox="0 0 1024 1024" fill="none" xmlns="http://www.w3.org/2000/svg">
<path d="M640 768C627.2 768 618.667 763.733 610.133 755.2C593.067 738.133 593.067 712.533 610.133 695.467L823.467 482.133C840.533 465.067 866.133 465.067 883.2 482.133C900.267 499.2 900.267 524.8 883.2 541.867L669.867 755.2C661.333 763.733 652.8 768 640 768Z" fill="black"/>
<path d="M853.333 554.667C840.533 554.667 832 550.4 823.467 541.867L610.133 328.533C593.067 311.467 593.067 285.867 610.133 268.8C627.2 251.733 652.8 251.733 669.867 268.8L883.2 482.133C900.267 499.2 900.267 524.8 883.2 541.867C874.667 550.4 866.133 554.667 853.333 554.667Z" fill="black"/>
<path d="M853.333 554.667H170.667C145.067 554.667 128 537.6 128 512C128 486.4 145.067 469.333 170.667 469.333H853.333C878.933 469.333 896 486.4 896 512C896 537.6 878.933 554.667 853.333 554.667Z" fill="black"/>
</svg>
