<svg width="26" height="26" viewBox="0 0 26 26" fill="none" xmlns="http://www.w3.org/2000/svg">
<path d="M11.4 21.4C13.7438 21.4015 16.0188 20.6078 17.8516 19.1484L24.1516 25.4484L25.8469 23.7531L19.5485 17.4515C21.511 14.9718 22.2376 11.7327 21.522 8.65148C20.8079 5.57024 18.7298 2.98108 15.8768 1.61708C13.0221 0.252997 9.70316 0.260837 6.85636 1.64051C4.00948 3.02019 1.94556 5.62019 1.24836 8.70452C0.549916 11.7904 1.29367 15.0249 3.26868 17.4953C5.24524 19.9656 8.2376 21.4031 11.4 21.4ZM11.4 2.99996C13.5219 2.99996 15.5564 3.84216 17.0564 5.34372C18.558 6.84372 19.4002 8.87808 19.4002 11.0001C19.4002 13.1222 18.558 15.1565 17.0564 16.6565C15.5564 18.1581 13.522 19.0003 11.4 19.0003C9.27796 19.0003 7.2436 18.1581 5.7436 16.6565C4.24204 15.1565 3.39984 13.1222 3.39984 11.0001C3.39984 8.87808 4.24204 6.84372 5.7436 5.34372C7.2436 3.84216 9.27796 2.99996 11.4 2.99996Z" fill="#1B1A1C"/>
</svg>
